<?xml version="1.0" standalone="no"?>
<!DOCTYPE svg PUBLIC "-//W3C//DTD SVG 20010904//EN"
 "http://www.w3.org/TR/2001/REC-SVG-20010904/DTD/svg10.dtd">
<svg version="1.0" xmlns="http://www.w3.org/2000/svg"
 width="64.000000pt" height="64.000000pt" viewBox="0 0 64.000000 64.000000"
 preserveAspectRatio="xMidYMid meet">

<g transform="translate(0.000000,64.000000) scale(0.100000,-0.100000)"
fill="#ffffff" stroke="none">
<path d="M79 491 c-18 -15 -21 -22 -12 -31 9 -10 17 -9 34 4 30 20 73 21 93 0
36 -35 7 -104 -42 -104 -34 0 -26 -28 11 -35 46 -10 57 -23 57 -66 0 -63 -56
-87 -122 -53 -22 11 -33 13 -41 5 -21 -21 18 -44 80 -49 49 -3 63 0 86 18 57
45 59 117 5 150 -29 17 -29 19 -10 29 27 14 44 65 32 95 -13 36 -49 56 -101
56 -31 0 -55 -6 -70 -19z"/>
<path d="M400 361 c22 -33 40 -62 40 -65 0 -3 -21 -35 -46 -71 -43 -62 -44
-65 -22 -65 17 0 32 15 59 56 l37 56 33 -56 c25 -42 39 -56 56 -56 13 0 23 3
23 6 0 4 -20 34 -44 69 l-45 62 39 54 c45 62 47 69 20 69 -14 0 -30 -15 -48
-45 -15 -25 -30 -45 -33 -45 -4 0 -19 20 -33 45 -21 34 -33 45 -52 45 -25 0
-25 0 16 -59z"/>
</g>
</svg>
